<svg width="236" height="270" viewBox="0 0 236 270" fill="none" xmlns="http://www.w3.org/2000/svg">
<path d="M155.769 218.077C155.769 220.933 153.433 223.269 150.577 223.269H15.5769C12.7212 223.269 10.3846 220.933 10.3846 218.077V31.1538C10.3846 28.2981 12.7212 25.9615 15.5769 25.9615H150.577C153.433 25.9615 155.769 28.2981 155.769 31.1538V67.0223H166.154V20.7692C166.154 9.34615 156.808 0 145.385 0H20.7692C9.34615 0 0 9.34615 0 20.7692V249.231C0 260.654 9.34615 270 20.7692 270H145.385C156.808 270 166.154 260.654 166.154 249.231V202.978H155.769V218.077ZM72.6923 9.585H93.4615C96.3173 9.585 98.6539 11.2362 98.6539 13.2612C98.6539 15.2862 96.3173 16.9373 93.4615 16.9373H72.6923C69.8365 16.9373 67.5 15.2862 67.5 13.2612C67.5 11.2465 69.8261 9.585 72.6923 9.585ZM25.9615 8.07923C28.8173 8.07923 31.1538 10.4054 31.1538 13.2715C31.1538 16.1377 28.8173 18.4638 25.9615 18.4638C23.1058 18.4638 20.7692 16.1377 20.7692 13.2715C20.7692 10.4054 23.0954 8.07923 25.9615 8.07923ZM83.0769 258.951C76.2335 258.951 70.6881 253.416 70.6881 246.572C70.6881 239.718 76.2335 234.173 83.0769 234.173C89.9204 234.173 95.4762 239.718 95.4762 246.572C95.4762 253.385 89.9204 258.951 83.0769 258.951Z" fill="#20BCC6" fill-opacity="0.2"/>
<path d="M55.585 96.4427L125.131 131.21C135.609 136.444 155.142 136.444 165.6 131.21L235.145 96.4427C232.549 85.5804 222.798 77.4077 211.167 77.4077H79.5527C67.9427 77.4077 58.1707 85.5804 55.585 96.4427Z" fill="#20BCC6" fill-opacity="0.2"/>
<path d="M169.292 138.562C162.853 141.781 154.359 143.547 145.376 143.547C136.383 143.547 127.878 141.771 121.45 138.562L102.218 128.946L54.8535 152.623V167.909C54.8535 181.492 65.9651 192.593 79.5377 192.593H211.194C224.777 192.593 235.878 181.492 235.878 167.909V152.623L188.503 128.956L169.292 138.562Z" fill="#20BCC6" fill-opacity="0.2"/>
<path d="M197.724 124.355L235.877 143.432V105.279L197.724 124.355Z" fill="#20BCC6" fill-opacity="0.2"/>
<path d="M54.875 143.432L93.0385 124.355L54.875 105.279V143.432Z" fill="#20BCC6" fill-opacity="0.2"/>
</svg>
