<svg width="31" height="32" viewBox="0 0 31 32" fill="none" xmlns="http://www.w3.org/2000/svg">
    <path d="M29.6648 2.40946e-06H1.33551C0.835543 -0.000949371 0.377476 0.280142 0.149072 0.727794C-0.0824818 1.18147 -0.0418416 1.72779 0.25398 2.14213L10.6326 16.8658C10.6361 16.8709 10.6399 16.8756 10.6434 16.8807C11.0205 17.3934 11.2246 18.0146 11.2255 18.6526V30.6567C11.2233 31.0121 11.362 31.3537 11.6105 31.606C11.8594 31.8579 12.1978 32 12.5506 32C12.7299 31.9997 12.9075 31.9638 13.0733 31.8944L18.9053 29.6551C19.4276 29.4943 19.7745 28.9978 19.7745 28.4001V18.6526C19.7754 18.0146 19.9795 17.3934 20.3563 16.8807C20.3598 16.8756 20.3636 16.8709 20.367 16.8658L30.746 2.14182C31.0418 1.72779 31.0825 1.18179 30.8509 0.728111C30.6228 0.280142 30.1645 -0.000949371 29.6648 2.40946e-06Z" fill="white"/>
</svg>
