<svg width="31" height="29" viewBox="0 0 31 29" fill="none" xmlns="http://www.w3.org/2000/svg">
    <path d="M13.1154 2.5769H1.19231C0.476923 2.5769 0 3.05383 0 3.76921V6.15383C0 6.86921 0.476923 7.34614 1.19231 7.34614H13.1154C13.8308 7.34614 14.3077 6.86921 14.3077 6.15383V3.76921C14.3077 3.05383 13.8308 2.5769 13.1154 2.5769Z" fill="#20BCC6"/>
    <path d="M13.1154 12.1154H1.19231C0.476923 12.1154 0 12.5923 0 13.3077V15.6923C0 16.4077 0.476923 16.8846 1.19231 16.8846H13.1154C13.8308 16.8846 14.3077 16.4077 14.3077 15.6923V13.3077C14.3077 12.5923 13.8308 12.1154 13.1154 12.1154Z" fill="#20BCC6"/>
    <path d="M13.1154 21.6539H1.19231C0.476923 21.6539 0 22.1308 0 22.8462V25.2308C0 25.9462 0.476923 26.4231 1.19231 26.4231H13.1154C13.8308 26.4231 14.3077 25.9462 14.3077 25.2308V22.8462C14.3077 22.1308 13.8308 21.6539 13.1154 21.6539Z" fill="#20BCC6"/>
    <path d="M30.6423 17.2423L28.9731 15.5731C28.7346 15.3346 28.3769 15.2154 28.1384 15.2154C27.7808 15.2154 27.5423 15.3346 27.3038 15.5731L24.9192 17.9577C24.5615 18.3154 23.8461 18.0769 23.8461 17.4808V1.38463C23.8461 0.788476 23.25 0.192322 22.6538 0.192322H20.2692C19.6731 0.192322 19.0769 0.788476 19.0769 1.38463V27.6154C19.0769 27.9731 19.1961 28.2116 19.4346 28.45C19.6731 28.6885 20.0308 28.8077 20.2692 28.8077C20.6269 28.8077 20.8654 28.6885 21.1038 28.45L30.6423 18.9116C30.8808 18.6731 31 18.4346 31 18.0769C31 17.7192 30.8808 17.4808 30.6423 17.2423Z" fill="#20BCC6"/>
</svg>
