<svg width="31" height="29" viewBox="0 0 31 29" fill="none" xmlns="http://www.w3.org/2000/svg">
    <path d="M13.1154 2.5769H1.19231C0.476923 2.5769 0 3.05383 0 3.76921V6.15383C0 6.86921 0.476923 7.34614 1.19231 7.34614H13.1154C13.8308 7.34614 14.3077 6.86921 14.3077 6.15383V3.76921C14.3077 3.05383 13.8308 2.5769 13.1154 2.5769Z" fill="white"/>
    <path d="M13.1154 12.1154H1.19231C0.476923 12.1154 0 12.5923 0 13.3077V15.6923C0 16.4077 0.476923 16.8846 1.19231 16.8846H13.1154C13.8308 16.8846 14.3077 16.4077 14.3077 15.6923V13.3077C14.3077 12.5923 13.8308 12.1154 13.1154 12.1154Z" fill="white"/>
    <path d="M13.1154 21.6538H1.19231C0.476923 21.6538 0 22.1307 0 22.8461V25.2307C0 25.9461 0.476923 26.423 1.19231 26.423H13.1154C13.8308 26.423 14.3077 25.9461 14.3077 25.2307V22.8461C14.3077 22.1307 13.8308 21.6538 13.1154 21.6538Z" fill="white"/>
    <path d="M30.6423 17.2423L28.9731 15.573C28.7346 15.3346 28.3769 15.2153 28.1384 15.2153C27.7808 15.2153 27.5423 15.3346 27.3038 15.573L24.9192 17.9576C24.5615 18.3153 23.8461 18.0769 23.8461 17.4807V1.38457C23.8461 0.788415 23.25 0.192261 22.6538 0.192261H20.2692C19.6731 0.192261 19.0769 0.788415 19.0769 1.38457V27.6153C19.0769 27.973 19.1961 28.2115 19.4346 28.45C19.6731 28.6884 20.0308 28.8076 20.2692 28.8076C20.6269 28.8076 20.8654 28.6884 21.1038 28.45L30.6423 18.9115C30.8808 18.673 31 18.4346 31 18.0769C31 17.7192 30.8808 17.4807 30.6423 17.2423Z" fill="white"/>
</svg>
